# xmcd
#
# Track frame offsets: 
#        150
#        20567
#        44635
#        70866
#        90169
#        116832
#        134490
#        155615
#        185847
#        216456
#        245337
#
# Disc length: 3691 seconds
#
# Revision: 2
# Processed by: cddbd v1.5.2PL0 Copyright (c) Steve Scherf et al.
# Submitted via: ExactAudioCopy v0.95a5
#
DISCID=a40e690b
DTITLE=Various Artist - Jazz Lounge VIII - A Grand Night For Swingin'
DYEAR=2004
DGENRE=Jazz
TTITLE0=Shirley Scott - It Could Happen To You
TTITLE1=Blue Mitchell - Why Do I Love You ?
TTITLE2=Art Pepper - Imagination
TTITLE3=Miles Davis - Miles Ahead
TTITLE4=Freddy Cole - Just The Way You Are
TTITLE5=Grady Tate - 'Deed I Do
TTITLE6=Barney Kessel - Just in Time
TTITLE7=Harry "Sweets" Edison and Eddy "Lockjaw" Davis - Dirty Butt Blue
TTITLE7=s
TTITLE8=Jimmy Cobb - Bobblehead
TTITLE9=Johnny Hodges - Things Ain't What They Used To Be
TTITLE10=Zoot Sims with The Joe Castro Trio - East Of The Sun (West Of
TTITLE10=The Moon)
EXTD=
EXTT0=
EXTT1=
EXTT2=
EXTT3=
EXTT4=
EXTT5=
EXTT6=
EXTT7=
EXTT8=
EXTT9=
EXTT10=
PLAYORDER=
